<?xml version="1.0" encoding="utf-8"?>
<!-- Generator: Adobe Illustrator 22.1.0, SVG Export Plug-In . SVG Version: 6.00 Build 0)  -->
<svg version="1.1" id="Capa_1" xmlns="http://www.w3.org/2000/svg" xmlns:xlink="http://www.w3.org/1999/xlink" x="0px" y="0px"
	 viewBox="0 0 380 380" style="enable-background:new 0 0 380 380;" xml:space="preserve">
<style type="text/css">
	.st0{opacity:0.8;}
	.st1{fill:#FFFFFF;}
	.st2{fill:none;stroke:#76C9DB;stroke-width:2;stroke-miterlimit:10;}
</style>
<g class="st0">
	<path class="st1" d="M288.4,77.1H90.9l18.4,242.7c0,0,0,0.6,0,0.9c0,4.7,35.8,8.5,79.9,8.5c44.2,0,80-3.8,80-8.5
		c0-0.3-0.2-0.9-0.2-0.9L288.4,77.1z"/>
</g>
<g>
	<path class="st2" d="M288.4,77.1H90.9l18.4,242.7c0,0,0,0.6,0,0.9c0,4.7,35.8,8.5,79.9,8.5c44.2,0,80-3.8,80-8.5
		c0-0.3-0.2-0.9-0.2-0.9L288.4,77.1z"/>
</g>
</svg>
