<?xml version="1.0" encoding="utf-8"?>
<!-- Generator: Adobe Illustrator 23.0.2, SVG Export Plug-In . SVG Version: 6.00 Build 0)  -->
<svg version="1.1" id="Capa_1" xmlns="http://www.w3.org/2000/svg" xmlns:xlink="http://www.w3.org/1999/xlink" x="0px" y="0px"
	 viewBox="0 0 380 380" style="enable-background:new 0 0 380 380;" xml:space="preserve">
<style type="text/css">
	.st0{opacity:0.53;fill:#FFFFFF;enable-background:new    ;}
	.st1{fill:none;stroke:#29235C;stroke-width:3;stroke-linecap:round;stroke-linejoin:round;stroke-miterlimit:10;}
</style>
<path class="st0" d="M298.9,51.1c0-7-48.8-12.6-108.9-12.6S81.1,44.1,81.1,51.1L104.5,331c0,0,0,0.7,0,1c0,5.2,37.9,9.4,84.7,9.4
	s84.7-4.2,84.7-9.4c0-0.3-0.2-1-0.2-1L298.9,51.1z"/>
<path class="st1" d="M298.9,51.1c0,7-48.8,12.6-108.9,12.6S81.1,58.1,81.1,51.1S129.9,38.5,190,38.5S298.9,44.2,298.9,51.1z"/>
<path class="st1" d="M298.9,51.1c0-7-48.8-12.6-108.9-12.6S81.1,44.1,81.1,51.1L104.5,331c0,0,0,0.7,0,1c0,5.2,37.9,9.4,84.7,9.4
	s84.7-4.2,84.7-9.4c0-0.3-0.2-1-0.2-1L298.9,51.1z"/>
</svg>
